<svg width="328" height="98" viewBox="0 0 328 98" fill="none" xmlns="http://www.w3.org/2000/svg">
<mask id="mask0_151_682" style="mask-type:luminance" maskUnits="userSpaceOnUse" x="25" y="5" width="57" height="49">
<path d="M25.334 5.33203H81.334V53.332H25.334V5.33203Z" fill="white"/>
</mask>
<g mask="url(#mask0_151_682)">
<mask id="mask1_151_682" style="mask-type:luminance" maskUnits="userSpaceOnUse" x="0" y="3" width="118" height="90">
<path d="M3.46419 3.48242L117.37 8.05534L113.964 92.9876L0.0527344 88.4147L3.46419 3.48242Z" fill="white"/>
</mask>
<g mask="url(#mask1_151_682)">
<mask id="mask2_151_682" style="mask-type:luminance" maskUnits="userSpaceOnUse" x="0" y="3" width="118" height="90">
<path d="M3.46419 3.48242L117.37 8.05534L113.964 92.9876L0.0527344 88.4147L3.46419 3.48242Z" fill="white"/>
</mask>
<g mask="url(#mask2_151_682)">
<path d="M56.8438 40.4512C45.875 42.6283 35.5677 46.7428 26.25 52.5866L60.4948 5.7793L80.8698 38.9355C80 38.873 79.1302 38.8366 78.2604 38.8053C71.6406 38.5397 65.026 38.9824 58.625 40.1439C58.0208 40.2272 57.4479 40.3418 56.8438 40.4512Z" fill="#207067"/>
</g>
</g>
</g>
<mask id="mask3_151_682" style="mask-type:luminance" maskUnits="userSpaceOnUse" x="0" y="44" width="115" height="50">
<path d="M0 44H114.667V93.3333H0V44Z" fill="white"/>
</mask>
<g mask="url(#mask3_151_682)">
<mask id="mask4_151_682" style="mask-type:luminance" maskUnits="userSpaceOnUse" x="0" y="3" width="118" height="90">
<path d="M3.46419 3.48438L117.37 8.05729L113.964 92.9896L0.0527344 88.4167L3.46419 3.48438Z" fill="white"/>
</mask>
<g mask="url(#mask4_151_682)">
<mask id="mask5_151_682" style="mask-type:luminance" maskUnits="userSpaceOnUse" x="0" y="3" width="118" height="90">
<path d="M3.46419 3.48438L117.37 8.05729L113.964 92.9896L0.0527344 88.4167L3.46419 3.48438Z" fill="white"/>
</mask>
<g mask="url(#mask5_151_682)">
<path d="M114.042 92.9218L87.9375 91.875L87.8073 91.677L69.1198 61.2604L66.1302 56.3697C49.8802 63.026 36.0573 74.552 26.6354 89.2239L26.3906 89.2135L26.2448 89.401L0.109375 88.3489L0.255208 88.1666L0.0625 88.1562C3.67708 81.7031 8.08854 75.776 13.1823 70.4947C25.0729 58.1874 40.5833 49.4531 57.9271 46.0364L59.5469 45.7447C65.5052 44.677 71.6875 44.2395 78.0052 44.4947C80.2083 44.5833 82.3802 44.75 84.5521 45.0052C92.099 45.8802 99.3594 47.7499 106.151 50.4479C104.708 50.3124 103.24 50.2239 101.771 50.1666C97.1146 49.9791 92.526 50.177 88.0625 50.7083L91.3385 56.0468L114.042 92.9218Z" fill="#0C4B77"/>
</g>
</g>
</g>
<mask id="mask6_151_682" style="mask-type:luminance" maskUnits="userSpaceOnUse" x="114" y="0" width="103" height="60">
<path d="M216.001 0H114.668V60H216.001V0Z" fill="white"/>
</mask>
<g mask="url(#mask6_151_682)">
<path d="M143.229 44.3939L133.354 15.8105H126.49L116.375 44.3939H122.677L124.604 38.4512H134.958L136.885 44.3939H143.229ZM127.375 30.0241L129.823 21.7949L132.229 30.0241L133.396 33.5553H126.208L127.375 30.0241Z" fill="#0C4B77"/>
<path d="M166.634 15.8105H146.441V44.3939H152.384V32.5501H164.827V27.2533H152.384V21.1126H166.634V15.8105Z" fill="#0C4B77"/>
<path d="M186.344 30.6647C189.995 29.7012 191.803 27.3314 191.803 23.6803C191.803 19.623 189.594 15.8105 182.771 15.8105H169.443V44.3939H175.386V33.3158H180.641C183.735 33.3158 184.74 34.597 184.98 37.0501L185.662 44.3939H191.761L190.6 35.321C190.36 33.4355 189.678 31.347 186.344 30.6647ZM175.386 20.7897H181.886C184.818 20.7897 185.98 22.3939 185.98 24.4824C185.98 26.6908 184.657 28.498 181.084 28.498H175.386V20.7897Z" fill="#0C4B77"/>
<path d="M202.562 44.3939V15.8105H196.619V44.3939H202.562Z" fill="#0C4B77"/>
</g>
<mask id="mask7_151_682" style="mask-type:luminance" maskUnits="userSpaceOnUse" x="114" y="34" width="215" height="62">
<path d="M328.001 34.666H114.668V95.9994H328.001V34.666Z" fill="white"/>
</mask>
<g mask="url(#mask7_151_682)">
<path d="M116.172 50.707V56.0091H124.766V79.2904H130.703V56.0091H139.255V50.707H116.172Z" fill="#0C4B77"/>
<path d="M159.569 65.5612C163.22 64.5977 165.027 62.2279 165.027 58.5768C165.027 54.5195 162.819 50.707 155.996 50.707H142.668V79.2904H148.611V68.2122H153.866C156.96 68.2122 157.965 69.4935 158.204 71.9466L158.887 79.2904H164.986L163.824 70.2174C163.585 68.332 162.902 66.2435 159.569 65.5612ZM148.611 55.6862H155.111C158.043 55.6862 159.204 57.2904 159.204 59.3789C159.204 61.5872 157.882 63.3945 154.309 63.3945H148.611V55.6862Z" fill="#0C4B77"/>
<path d="M195.094 79.2904L185.219 50.707H178.355L168.24 79.2904H174.542L176.469 73.3477H186.824L188.751 79.2904H195.094ZM179.24 64.9206L181.688 56.6914L184.094 64.9206L185.261 68.4518H178.074L179.24 64.9206Z" fill="#0C4B77"/>
<path d="M215.848 63.2331C215.848 65.2383 215.889 67.2852 215.926 69.2956C215.004 67.6914 214.04 66.1237 213.04 64.5195L204.53 50.707H198.707V79.2904H204.65V66.7643C204.65 64.8008 204.65 62.7539 204.608 60.7435C205.613 62.431 206.613 64.1185 207.66 65.8008L215.967 79.2904H221.79V50.707H215.848V63.2331Z" fill="#0C4B77"/>
<path d="M238.087 80.2122C245.154 80.2122 249.446 76.7591 249.446 71.2227C249.446 66.4466 246.118 64.0768 241.66 62.9935L235.962 61.5872C233.753 61.0247 232.628 59.9414 232.628 58.3737C232.628 56.4466 234.316 54.9258 237.368 54.9258C240.498 54.9258 242.826 56.5716 243.186 59.4622H248.967C248.607 53.8372 244.227 50.0664 237.326 50.0664C229.977 50.0664 226.649 54.4414 226.649 59.0195C226.649 63.0299 229.217 65.8424 233.67 66.9674L238.93 68.2904C241.66 68.9727 243.305 69.7383 243.305 71.7852C243.305 74.0299 241.3 75.3581 238.05 75.3581C234.274 75.3581 231.946 73.5924 231.785 70.4206H225.967C226.123 76.6029 230.821 80.2122 238.087 80.2122Z" fill="#0C4B77"/>
<path d="M273.816 50.707H253.623V79.2904H259.566V67.4466H272.008V62.1497H259.566V56.0091H273.816V50.707Z" fill="#0C4B77"/>
<path d="M282.568 67.0872H295.932V61.7904H282.568V56.0091H297.417V50.707H276.625V79.2904H297.823V73.9935H282.568V67.0872Z" fill="#0C4B77"/>
<path d="M318.936 65.5612C322.587 64.5977 324.395 62.2279 324.395 58.5768C324.395 54.5195 322.186 50.707 315.363 50.707H302.035V79.2904H307.978V68.2122H313.233C316.327 68.2122 317.332 69.4935 317.572 71.9466L318.254 79.2904H324.353L323.191 70.2174C322.952 68.332 322.27 66.2435 318.936 65.5612ZM307.978 55.6862H314.478C317.41 55.6862 318.572 57.2904 318.572 59.3789C318.572 61.5872 317.249 63.3945 313.676 63.3945H307.978V55.6862Z" fill="#0C4B77"/>
</g>
<mask id="mask8_151_682" style="mask-type:luminance" maskUnits="userSpaceOnUse" x="117" y="81" width="181" height="17">
<path d="M297.334 81.332H117.334V97.332H297.334V81.332Z" fill="white"/>
</mask>
<g mask="url(#mask8_151_682)">
<path d="M126.658 93.5384L127.824 87.4759C127.991 86.6738 128.137 86.0124 128.262 85.4967C127.855 86.3301 127.538 86.9447 127.303 87.3301L123.72 93.5384H122.908L121.699 87.3301C121.668 87.2051 121.579 86.5957 121.428 85.4967C121.397 85.7624 121.335 86.1738 121.241 86.7259C121.142 87.2832 120.704 89.554 119.928 93.5384H118.824L120.595 84.3301H122.158L123.387 90.7051C123.413 90.8874 123.48 91.3405 123.595 92.0592L124.283 90.6634L127.887 84.3301H129.574L127.783 93.5384H126.658Z" fill="#207067"/>
<path d="M136.589 89.0801C136.589 89.6374 136.495 90.2259 136.318 90.8509C136.152 91.4655 135.902 91.9863 135.568 92.4134C135.245 92.8301 134.85 93.1426 134.381 93.3509C133.907 93.5592 133.37 93.6634 132.777 93.6634C131.928 93.6634 131.256 93.4082 130.756 92.8926C130.256 92.3822 130.006 91.679 130.006 90.7884C130.016 89.903 130.178 89.1165 130.485 88.4342C130.787 87.7415 131.214 87.2207 131.756 86.8717C132.298 86.5124 132.969 86.3301 133.777 86.3301C134.678 86.3301 135.37 86.5749 135.86 87.0592C136.344 87.5332 136.589 88.2051 136.589 89.0801ZM135.381 89.0801C135.381 87.8301 134.839 87.2051 133.756 87.2051C133.173 87.2051 132.699 87.3613 132.339 87.6634C131.975 87.9551 131.699 88.4134 131.506 89.0384C131.308 89.653 131.214 90.2415 131.214 90.8092C131.214 91.4655 131.35 91.9655 131.631 92.3092C131.907 92.6426 132.318 92.8092 132.86 92.8092C133.303 92.8092 133.657 92.7363 133.923 92.5801C134.199 92.429 134.443 92.1947 134.652 91.8717C134.86 91.554 135.027 91.1426 135.152 90.6426C135.277 90.1426 135.35 89.6217 135.381 89.0801Z" fill="#207067"/>
<path d="M140.331 93.5384H138.936L137.748 86.4551H138.977L139.644 91.0592C139.67 91.3665 139.712 91.7676 139.769 92.2676L139.79 92.6217L139.956 92.2676C140.149 91.8665 140.352 91.4707 140.561 91.0801L143.081 86.4551H144.352L140.331 93.5384Z" fill="#207067"/>
<path d="M145.594 84.9551L145.824 83.8301H146.99L146.782 84.9551H145.594ZM143.928 93.5384L145.303 86.4551H146.49L145.115 93.5384H143.928Z" fill="#207067"/>
<path d="M151.382 93.5384L152.215 89.3092C152.283 88.9342 152.32 88.6113 152.32 88.3301C152.32 87.6113 151.929 87.2467 151.153 87.2467C150.611 87.2467 150.122 87.4551 149.695 87.8717C149.278 88.2884 148.997 88.8613 148.861 89.5801L148.09 93.5384H146.924L148.007 87.9759C148.09 87.5592 148.174 87.054 148.257 86.4551H149.361C149.361 86.5124 149.34 86.6842 149.299 86.9759C149.257 87.2676 149.221 87.4967 149.195 87.6634H149.215C149.575 87.1634 149.934 86.8197 150.299 86.6217C150.658 86.429 151.09 86.3301 151.59 86.3301C152.242 86.3301 152.726 86.4915 153.049 86.8092C153.367 87.1322 153.528 87.5905 153.528 88.1842C153.528 88.4759 153.486 88.8405 153.403 89.2676L152.57 93.5384H151.382Z" fill="#207067"/>
<mask id="mask9_151_682" style="mask-type:luminance" maskUnits="userSpaceOnUse" x="153" y="85" width="10" height="12">
<path d="M153.334 85.332H162.667V96.7435H153.334V85.332Z" fill="white"/>
</mask>
<g mask="url(#mask9_151_682)">
<path d="M156.751 96.3092C155.262 96.3092 154.402 95.7572 154.168 94.6634L155.23 94.3926C155.382 95.0697 155.897 95.4134 156.772 95.4134C157.382 95.4134 157.855 95.252 158.189 94.9342C158.533 94.6113 158.783 94.0905 158.939 93.3717L159.147 92.2259C158.866 92.6165 158.626 92.8926 158.418 93.0592C158.21 93.2259 157.97 93.3613 157.71 93.4551C157.46 93.5488 157.168 93.6009 156.835 93.6009C156.168 93.6009 155.626 93.3822 155.21 92.9342C154.803 92.4915 154.605 91.9082 154.605 91.1842C154.605 90.6165 154.689 89.9967 154.855 89.3301C155.022 88.653 155.241 88.0905 155.522 87.6426C155.798 87.1999 156.137 86.8717 156.543 86.6634C156.96 86.4447 157.444 86.3301 158.001 86.3301C158.527 86.3301 158.97 86.4551 159.335 86.7051C159.694 86.9551 159.928 87.278 160.043 87.6634C160.069 87.5124 160.126 87.2832 160.21 86.9759C160.293 86.6738 160.34 86.4967 160.355 86.4551H161.48L161.355 86.9967L161.168 87.9342L160.105 93.3301C159.897 94.3822 159.522 95.1426 158.98 95.6009C158.439 96.0697 157.694 96.3092 156.751 96.3092ZM155.835 91.1009C155.835 91.6322 155.944 92.0332 156.168 92.3092C156.402 92.5905 156.741 92.7259 157.189 92.7259C157.658 92.7259 158.085 92.554 158.46 92.2051C158.845 91.8613 159.147 91.3874 159.355 90.7884C159.574 90.1947 159.689 89.5749 159.689 88.9342C159.689 88.3926 159.548 87.9707 159.272 87.6634C158.991 87.3613 158.611 87.2051 158.126 87.2051C157.72 87.2051 157.387 87.2884 157.126 87.4551C156.876 87.6113 156.658 87.8613 156.48 88.2051C156.298 88.554 156.147 89.0124 156.022 89.5801C155.897 90.153 155.835 90.6582 155.835 91.1009Z" fill="#207067"/>
</g>
<path d="M173.572 93.5384L174.738 87.4759C174.905 86.6738 175.051 86.0124 175.176 85.4967C174.77 86.3301 174.452 86.9447 174.217 87.3301L170.634 93.5384H169.822L168.613 87.3301C168.582 87.2051 168.493 86.5957 168.342 85.4967C168.311 85.7624 168.249 86.1738 168.155 86.7259C168.056 87.2832 167.618 89.554 166.842 93.5384H165.738L167.509 84.3301H169.072L170.301 90.7051C170.327 90.8874 170.395 91.3405 170.509 92.0592L171.197 90.6634L174.801 84.3301H176.488L174.697 93.5384H173.572Z" fill="#207067"/>
<path d="M183.503 89.0801C183.503 89.6374 183.41 90.2259 183.232 90.8509C183.066 91.4655 182.816 91.9863 182.482 92.4134C182.16 92.8301 181.764 93.1426 181.295 93.3509C180.821 93.5592 180.285 93.6634 179.691 93.6634C178.842 93.6634 178.17 93.4082 177.67 92.8926C177.17 92.3822 176.92 91.679 176.92 90.7884C176.93 89.903 177.092 89.1165 177.399 88.4342C177.701 87.7415 178.128 87.2207 178.67 86.8717C179.212 86.5124 179.883 86.3301 180.691 86.3301C181.592 86.3301 182.285 86.5749 182.774 87.0592C183.258 87.5332 183.503 88.2051 183.503 89.0801ZM182.295 89.0801C182.295 87.8301 181.753 87.2051 180.67 87.2051C180.087 87.2051 179.613 87.3613 179.253 87.6634C178.889 87.9551 178.613 88.4134 178.42 89.0384C178.222 89.653 178.128 90.2415 178.128 90.8092C178.128 91.4655 178.264 91.9655 178.545 92.3092C178.821 92.6426 179.232 92.8092 179.774 92.8092C180.217 92.8092 180.571 92.7363 180.837 92.5801C181.113 92.429 181.357 92.1947 181.566 91.8717C181.774 91.554 181.941 91.1426 182.066 90.6426C182.191 90.1426 182.264 89.6217 182.295 89.0801Z" fill="#207067"/>
<path d="M188.62 93.5384L189.454 89.3092C189.521 88.9342 189.558 88.6113 189.558 88.3301C189.558 87.6113 189.167 87.2467 188.391 87.2467C187.85 87.2467 187.36 87.4551 186.933 87.8717C186.516 88.2884 186.235 88.8613 186.1 89.5801L185.329 93.5384H184.162L185.245 87.9759C185.329 87.5592 185.412 87.054 185.495 86.4551H186.6C186.6 86.5124 186.579 86.6842 186.537 86.9759C186.495 87.2676 186.459 87.4967 186.433 87.6634H186.454C186.813 87.1634 187.173 86.8197 187.537 86.6217C187.896 86.429 188.329 86.3301 188.829 86.3301C189.48 86.3301 189.964 86.4915 190.287 86.8092C190.605 87.1322 190.766 87.5905 190.766 88.1842C190.766 88.4759 190.725 88.8405 190.641 89.2676L189.808 93.5384H188.62Z" fill="#207067"/>
<path d="M193.052 90.2467C193.021 90.403 193.01 90.653 193.01 90.9967C193.01 91.5697 193.146 92.0124 193.427 92.3301C193.719 92.6374 194.156 92.7884 194.74 92.7884C195.167 92.7884 195.552 92.6842 195.885 92.4759C196.229 92.2676 196.5 91.9863 196.698 91.6217L197.615 92.0176C197.292 92.6009 196.885 93.028 196.385 93.2884C195.896 93.5384 195.307 93.6634 194.615 93.6634C193.74 93.6634 193.057 93.4238 192.573 92.9342C192.083 92.4499 191.844 91.7676 191.844 90.8926C191.844 90.0176 191.995 89.2363 192.302 88.5384C192.604 87.8457 193.036 87.304 193.594 86.9134C194.161 86.528 194.802 86.3301 195.51 86.3301C196.396 86.3301 197.094 86.5592 197.594 87.0176C198.094 87.4655 198.344 88.0957 198.344 88.9134C198.344 89.3717 198.286 89.8197 198.177 90.2467H193.052ZM197.135 89.3509L197.177 88.8717C197.177 88.3301 197.031 87.9238 196.74 87.6426C196.458 87.3509 196.057 87.2051 195.531 87.2051C194.948 87.2051 194.453 87.3926 194.052 87.7676C193.661 88.1322 193.385 88.6582 193.219 89.3509H197.135Z" fill="#207067"/>
<mask id="mask10_151_682" style="mask-type:luminance" maskUnits="userSpaceOnUse" x="197" y="85" width="10" height="12">
<path d="M197.334 85.332H206.667V96.7435H197.334V85.332Z" fill="white"/>
</mask>
<g mask="url(#mask10_151_682)">
<path d="M198.94 96.3092C198.622 96.3092 198.336 96.278 198.086 96.2259L198.273 95.3509C198.471 95.377 198.638 95.3926 198.773 95.3926C199.19 95.3926 199.555 95.252 199.878 94.9759C200.195 94.6947 200.508 94.2936 200.815 93.7676L200.982 93.4551L199.565 86.4551H200.773L201.503 90.3717C201.555 90.7207 201.612 91.0957 201.669 91.4967C201.737 91.8874 201.773 92.1374 201.773 92.2467C201.815 92.1634 201.867 92.054 201.94 91.9134C202.008 91.7624 202.992 89.9447 204.898 86.4551H206.211L202.107 93.5384C201.617 94.3822 201.232 94.9759 200.94 95.3092C200.648 95.6426 200.341 95.8926 200.023 96.0592C199.701 96.2259 199.341 96.3092 198.94 96.3092Z" fill="#207067"/>
</g>
<path d="M205.583 95.2474H204.791C205.301 94.6484 205.614 94.0807 205.729 93.5391H205.166L205.437 92.1016H206.708L206.499 93.2057C206.416 93.6224 206.301 93.987 206.166 94.3099C206.025 94.6432 205.833 94.9557 205.583 95.2474Z" fill="#207067"/>
<path d="M220.236 93.5384L221.402 87.4759C221.569 86.6738 221.715 86.0124 221.84 85.4967C221.434 86.3301 221.116 86.9447 220.882 87.3301L217.298 93.5384H216.486L215.277 87.3301C215.246 87.2051 215.158 86.5957 215.007 85.4967C214.975 85.7624 214.913 86.1738 214.819 86.7259C214.72 87.2832 214.283 89.554 213.507 93.5384H212.402L214.173 84.3301H215.736L216.965 90.7051C216.991 90.8874 217.059 91.3405 217.173 92.0592L217.861 90.6634L221.465 84.3301H223.152L221.361 93.5384H220.236Z" fill="#207067"/>
<path d="M230.167 89.0801C230.167 89.6374 230.074 90.2259 229.896 90.8509C229.73 91.4655 229.48 91.9863 229.146 92.4134C228.824 92.8301 228.428 93.1426 227.959 93.3509C227.485 93.5592 226.949 93.6634 226.355 93.6634C225.506 93.6634 224.834 93.4082 224.334 92.8926C223.834 92.3822 223.584 91.679 223.584 90.7884C223.594 89.903 223.756 89.1165 224.063 88.4342C224.365 87.7415 224.792 87.2207 225.334 86.8717C225.876 86.5124 226.548 86.3301 227.355 86.3301C228.256 86.3301 228.949 86.5749 229.438 87.0592C229.923 87.5332 230.167 88.2051 230.167 89.0801ZM228.959 89.0801C228.959 87.8301 228.417 87.2051 227.334 87.2051C226.751 87.2051 226.277 87.3613 225.917 87.6634C225.553 87.9551 225.277 88.4134 225.084 89.0384C224.886 89.653 224.792 90.2415 224.792 90.8092C224.792 91.4655 224.928 91.9655 225.209 92.3092C225.485 92.6426 225.896 92.8092 226.438 92.8092C226.881 92.8092 227.235 92.7363 227.501 92.5801C227.777 92.429 228.021 92.1947 228.23 91.8717C228.438 91.554 228.605 91.1426 228.73 90.6426C228.855 90.1426 228.928 89.6217 228.959 89.0801Z" fill="#207067"/>
<path d="M233.91 93.5384H232.514L231.326 86.4551H232.555L233.222 91.0592C233.248 91.3665 233.29 91.7676 233.347 92.2676L233.368 92.6217L233.535 92.2676C233.727 91.8665 233.93 91.4707 234.139 91.0801L236.66 86.4551H237.93L233.91 93.5384Z" fill="#207067"/>
<path d="M239.173 84.9551L239.402 83.8301H240.568L240.36 84.9551H239.173ZM237.506 93.5384L238.881 86.4551H240.068L238.693 93.5384H237.506Z" fill="#207067"/>
<path d="M244.96 93.5384L245.794 89.3092C245.861 88.9342 245.898 88.6113 245.898 88.3301C245.898 87.6113 245.507 87.2467 244.731 87.2467C244.189 87.2467 243.7 87.4551 243.273 87.8717C242.856 88.2884 242.575 88.8613 242.439 89.5801L241.669 93.5384H240.502L241.585 87.9759C241.669 87.5592 241.752 87.054 241.835 86.4551H242.939C242.939 86.5124 242.919 86.6842 242.877 86.9759C242.835 87.2676 242.799 87.4967 242.773 87.6634H242.794C243.153 87.1634 243.512 86.8197 243.877 86.6217C244.236 86.429 244.669 86.3301 245.169 86.3301C245.82 86.3301 246.304 86.4915 246.627 86.8092C246.945 87.1322 247.106 87.5905 247.106 88.1842C247.106 88.4759 247.064 88.8405 246.981 89.2676L246.148 93.5384H244.96Z" fill="#207067"/>
<mask id="mask11_151_682" style="mask-type:luminance" maskUnits="userSpaceOnUse" x="246" y="85" width="10" height="12">
<path d="M246.666 85.332H255.999V96.7435H246.666V85.332Z" fill="white"/>
</mask>
<g mask="url(#mask11_151_682)">
<path d="M250.327 96.3092C248.838 96.3092 247.979 95.7572 247.744 94.6634L248.807 94.3926C248.958 95.0697 249.473 95.4134 250.348 95.4134C250.958 95.4134 251.432 95.252 251.765 94.9342C252.109 94.6113 252.359 94.0905 252.515 93.3717L252.723 92.2259C252.442 92.6165 252.202 92.8926 251.994 93.0592C251.786 93.2259 251.546 93.3613 251.286 93.4551C251.036 93.5488 250.744 93.6009 250.411 93.6009C249.744 93.6009 249.202 93.3822 248.786 92.9342C248.38 92.4915 248.182 91.9082 248.182 91.1842C248.182 90.6165 248.265 89.9967 248.432 89.3301C248.598 88.653 248.817 88.0905 249.098 87.6426C249.374 87.1999 249.713 86.8717 250.119 86.6634C250.536 86.4447 251.02 86.3301 251.577 86.3301C252.104 86.3301 252.546 86.4551 252.911 86.7051C253.27 86.9551 253.505 87.278 253.619 87.6634C253.645 87.5124 253.702 87.2832 253.786 86.9759C253.869 86.6738 253.916 86.4967 253.932 86.4551H255.057L254.932 86.9967L254.744 87.9342L253.682 93.3301C253.473 94.3822 253.098 95.1426 252.557 95.6009C252.015 96.0697 251.27 96.3092 250.327 96.3092ZM249.411 91.1009C249.411 91.6322 249.52 92.0332 249.744 92.3092C249.979 92.5905 250.317 92.7259 250.765 92.7259C251.234 92.7259 251.661 92.554 252.036 92.2051C252.421 91.8613 252.723 91.3874 252.932 90.7884C253.15 90.1947 253.265 89.5749 253.265 88.9342C253.265 88.3926 253.124 87.9707 252.848 87.6634C252.567 87.3613 252.187 87.2051 251.702 87.2051C251.296 87.2051 250.963 87.2884 250.702 87.4551C250.452 87.6113 250.234 87.8613 250.057 88.2051C249.874 88.554 249.723 89.0124 249.598 89.5801C249.473 90.153 249.411 90.6582 249.411 91.1009Z" fill="#207067"/>
</g>
<path d="M265.339 93.5384L264.859 90.8509H260.672L259.109 93.5384H257.734L263.297 84.3301H264.714L266.609 93.5384H265.339ZM263.839 85.2676C263.781 85.3822 263.698 85.5332 263.589 85.7259C263.474 85.9082 262.682 87.2884 261.214 89.8717H264.672L264.005 86.2467L263.839 85.2676Z" fill="#207067"/>
<path d="M270.172 87.3092L268.964 93.5384H267.797L269.005 87.3092H268.005L268.172 86.4551H269.172L269.318 85.6634C269.411 85.179 269.547 84.8197 269.714 84.5801C269.88 84.3301 270.094 84.1426 270.359 84.0176C270.635 83.8926 270.984 83.8301 271.401 83.8301C271.734 83.8301 272.005 83.8613 272.214 83.9134L272.047 84.8092L271.755 84.7676L271.443 84.7467C271.177 84.7467 270.969 84.8249 270.818 84.9759C270.677 85.1165 270.557 85.403 270.464 85.8301L270.339 86.4551H271.734L271.568 87.3092H270.172Z" fill="#207067"/>
<path d="M275.747 87.4134C275.565 87.3457 275.372 87.3092 275.164 87.3092C274.706 87.3092 274.289 87.554 273.914 88.0384C273.549 88.5124 273.31 89.1165 273.185 89.8509L272.456 93.5384H271.289L272.352 88.1009L272.497 87.2051L272.622 86.4551H273.727L273.497 87.9134H273.539C273.815 87.3301 274.091 86.9238 274.372 86.6842C274.664 86.4499 274.987 86.3301 275.352 86.3301C275.544 86.3301 275.753 86.3613 275.977 86.4134L275.747 87.4134Z" fill="#207067"/>
<path d="M277.397 84.9551L277.626 83.8301H278.793L278.585 84.9551H277.397ZM275.73 93.5384L277.105 86.4551H278.293L276.918 93.5384H275.73Z" fill="#207067"/>
<path d="M281.561 92.7467C282.462 92.7467 283.092 92.2415 283.456 91.2259L284.477 91.5592C283.946 92.9655 282.967 93.6634 281.54 93.6634C280.706 93.6634 280.061 93.429 279.602 92.9551C279.154 92.4863 278.936 91.8197 278.936 90.9551C278.936 90.0801 279.092 89.2676 279.415 88.5176C279.732 87.7676 280.149 87.2207 280.665 86.8717C281.191 86.5124 281.831 86.3301 282.581 86.3301C283.316 86.3301 283.899 86.5176 284.331 86.8926C284.758 87.2572 284.998 87.7624 285.04 88.4134L283.894 88.5801C283.863 88.153 283.732 87.8249 283.498 87.6009C283.258 87.3665 282.941 87.2467 282.54 87.2467C281.998 87.2467 281.55 87.403 281.206 87.7051C280.873 87.9967 280.607 88.4655 280.415 89.1009C280.232 89.7415 280.144 90.3717 280.144 90.9967C280.144 92.1634 280.613 92.7467 281.561 92.7467Z" fill="#207067"/>
<path d="M291.261 93.6009C290.855 93.6009 290.558 93.5176 290.365 93.3509C290.183 93.1842 290.094 92.9342 290.094 92.6009L290.136 92.1842H290.094C289.73 92.7415 289.355 93.1322 288.969 93.3509C288.579 93.5592 288.105 93.6634 287.553 93.6634C286.938 93.6634 286.438 93.4863 286.053 93.1217C285.678 92.7624 285.49 92.2988 285.49 91.7259C285.49 90.9238 285.782 90.3092 286.365 89.8926C286.949 89.4759 287.87 89.2624 289.136 89.2467L290.657 89.2259C290.725 88.7988 290.761 88.5176 290.761 88.3926C290.761 87.9915 290.641 87.6999 290.407 87.5176C290.183 87.3249 289.87 87.2259 289.469 87.2259C288.938 87.2259 288.542 87.3249 288.282 87.5176C288.016 87.6999 287.829 87.9759 287.719 88.3509L286.553 88.1634C286.745 87.528 287.084 87.0592 287.574 86.7676C288.058 86.4759 288.709 86.3301 289.532 86.3301C290.282 86.3301 290.87 86.5072 291.303 86.8509C291.73 87.1999 291.949 87.6738 291.949 88.2676C291.949 88.5488 291.907 88.8874 291.824 89.2884L291.344 91.7676C291.287 91.9759 291.261 92.1634 291.261 92.3301C291.261 92.653 291.438 92.8092 291.803 92.8092C291.912 92.8092 292.042 92.7988 292.199 92.7676L292.094 93.4967C291.813 93.5645 291.537 93.6009 291.261 93.6009ZM290.49 90.0384L289.199 90.0592C288.667 90.0749 288.251 90.1217 287.949 90.2051C287.657 90.2884 287.428 90.3926 287.261 90.5176C287.105 90.6322 286.98 90.7832 286.886 90.9759C286.787 91.1738 286.74 91.403 286.74 91.6634C286.74 91.9967 286.844 92.2676 287.053 92.4759C287.271 92.6738 287.553 92.7676 287.886 92.7676C288.303 92.7676 288.678 92.679 289.011 92.4967C289.355 92.3197 289.641 92.0801 289.865 91.7884C290.084 91.4967 290.24 91.1842 290.324 90.8509L290.49 90.0384Z" fill="#207067"/>
</g>
</svg>
